<?xml version="1.0" encoding="utf-8"?>
<!-- Generator: Adobe Illustrator 25.4.1, SVG Export Plug-In . SVG Version: 6.00 Build 0)  -->
<svg version="1.1" id="Camada_1" xmlns="http://www.w3.org/2000/svg" xmlns:xlink="http://www.w3.org/1999/xlink" x="0px" y="0px"
	 viewBox="0 0 945.53 267.88" style="enable-background:new 0 0 945.53 267.88;" xml:space="preserve">
<style type="text/css">
	.st0{fill:url(#SVGID_1_);}
	.st1{fill:url(#SVGID_00000145048376072732265600000018317912005452663464_);}
	.st2{fill:#FFFFFF;}
	.st3{fill:#B20000;}
	.st4{fill:#12127D;}
	.st5{fill:url(#SVGID_00000023239070114598845310000004164009049766684581_);}
	.st6{fill:url(#SVGID_00000159447408765434629340000001647880130670588822_);}
	.st7{fill:url(#SVGID_00000061463273976848372240000002785388478985843386_);}
	.st8{fill:url(#SVGID_00000145024676601612578990000013843868165810891167_);}
	.st9{fill:url(#SVGID_00000016042100788770537960000002020518430170030740_);}
	.st10{fill:url(#SVGID_00000055703535236234934500000014661815855505848746_);}
	.st11{fill:url(#SVGID_00000106121044839133005190000001092940320119686317_);}
	.st12{fill:url(#SVGID_00000015312849153122691010000000656859836193107840_);}
	.st13{fill:url(#SVGID_00000158745622792145715170000000630071944905949090_);}
	.st14{fill:url(#SVGID_00000054255594057827729690000010869211831192474526_);}
	.st15{fill:url(#SVGID_00000060743430333068817890000003042860221270260635_);}
	.st16{fill:url(#SVGID_00000059285863008914186300000009499177991375139492_);}
	.st17{fill:url(#SVGID_00000098924824294942911530000005623718795030814649_);}
	.st18{fill:url(#SVGID_00000038414802710157373130000014971543761318058414_);}
	.st19{fill:url(#SVGID_00000112604956841611959150000009117547623390507177_);}
	.st20{fill:url(#SVGID_00000018916565480442850160000009351495123491661450_);}
	.st21{fill:url(#SVGID_00000024696711996079794190000000906900435687471262_);}
	.st22{fill:url(#SVGID_00000147186961847741706410000016293332015315516552_);}
	.st23{fill:url(#SVGID_00000140013978819065093250000008521685438979396225_);}
	.st24{fill:url(#SVGID_00000152250345007095388770000006381670339110549176_);}
	.st25{fill:url(#SVGID_00000080167724575460008680000012330314329306039429_);}
	.st26{fill:url(#SVGID_00000137817118777442496480000002361330169368103062_);}
	.st27{fill:url(#SVGID_00000008842059506228992620000012032328385967553168_);}
	.st28{fill:url(#SVGID_00000072980730197339809750000012950682288542694029_);}
	.st29{fill:url(#SVGID_00000103958647056751838890000003200224967499820970_);}
	.st30{fill:url(#SVGID_00000109752558670273743170000010521557743894527900_);}
	.st31{fill:url(#SVGID_00000129191323385685390490000012965692454783350407_);}
	.st32{fill:url(#SVGID_00000172424769402775218860000001353230240807103652_);}
	.st33{fill:url(#SVGID_00000114796367859270088650000016442226676632987027_);}
	.st34{fill:url(#SVGID_00000032622991169804366510000016703562044035141262_);}
	.st35{fill:url(#SVGID_00000050626936765618603590000014399025428287091603_);}
	.st36{fill:url(#SVGID_00000153699040500957836000000006981788896132232326_);}
	.st37{fill:url(#SVGID_00000069384042418940971210000000150761283489241478_);}
	.st38{fill:url(#SVGID_00000135669748395210776630000014250524464981042858_);}
	.st39{fill:url(#SVGID_00000179627654787112656540000013833446557399122577_);}
	.st40{fill:url(#SVGID_00000075855172581017148290000005560462968121588908_);}
	.st41{fill:url(#SVGID_00000097478479254071451330000008452565819110830979_);}
	.st42{fill:url(#SVGID_00000013182449855438018270000003911166840044336003_);}
	.st43{fill:url(#SVGID_00000025417130933450420760000001907479232529258630_);}
</style>
<g>
	<path class="st2" d="M218.99,90.04c-3.99,5.2-11.1,6.62-16.92,3.56c-3.63-1.91-6.45-4.73-8.8-8.35
		C201.78,86.83,210.29,88.42,218.99,90.04z"/>
	<g>
		<g>
			<path class="st3" d="M476.96,141.17c-0.91-1.04-1.83-2.08-2.48-2.82c2.9-4.08,6.01-7.66,8.23-11.72
				c10.12-18.53,11.51-38.19,6.21-58.31c-4.33-16.43-14.76-28.05-30.06-35.32c-12-5.7-24.81-7.91-37.95-7.96
				c-24.12-0.09-48.24-0.1-72.35-0.1l-0.13-0.11l0,0.11c-9.04,0-40.63,0.07-69.53,0.14c5.75,2.38,11.04,5.25,15.33,8.68l1.49,1.19
				c6.64,5.3,13.5,10.78,19.54,17.5c2.89,3.22,5.43,6.73,7.65,10.49l25.72,0.16l-0.64,187.48h8c14.08,0.52,45.49,0.88,62.52,0.65
				c7.29-0.1,14.67-0.83,21.81-2.26c17.01-3.41,31.28-11.48,40.78-26.53c8.18-12.97,10.53-27.44,9.99-42.45
				C490.59,165.56,486.64,152.29,476.96,141.17z M418.13,213.31c-8.07-0.13-16.14-0.05-24.21-0.04c-0.05,0-0.11,0-0.16,0
				l-0.35-55.77c8.32-0.04,16.64-0.05,24.95,0.17c4.47,0.12,9.18,1.05,13.3,2.78c9.26,3.89,13.54,11.71,14.24,21.42
				C447.26,200.75,436.88,213.61,418.13,213.31z M420.06,119.06c-8.94,0.56-17.92,0.43-26.89,0.38l-0.35-56.31c0.38,0,0.77,0,1.15,0
				c8.86,0.01,17.74-0.22,26.57,0.29c9.36,0.54,17.5,3.99,22.39,12.64C453.79,95.27,442,117.69,420.06,119.06z"/>
			<g>
				<g>
					<path class="st4" d="M341.28,250.42c-22.96-23.26-45.61-46.22-68.41-69.32c0.72-0.24,1.2-0.41,1.68-0.56
						c8.65-2.73,16.34-7.1,22.75-13.56c11.97-12.07,21.47-27.15,23.71-43.59c1.74-12.75,3.15-26.2-0.02-38.84
						c-2.38-9.48-6.6-18.12-13.17-25.44c-5.9-6.58-12.95-12.06-19.83-17.56c-12.97-10.38-39.75-15.83-56-16
						c-41.91-0.46-83.1-2.98-125-2c-14.49,0.34-29.52-1.44-44-3c-12.64-1.36-26.39-4.3-38.07-9.85c-1.49-0.71-2.94-1.5-4.33-2.39
						c-1.65-1.05-0.29,5.61-0.1,6.15c1.56,4.4,4.33,7.87,8.25,10.39c2.51,1.61,5.1,3.08,7.73,4.49c4.56,2.45,9.29,4.61,14.12,6.47
						c5.72,2.21,11.58,4.02,17.54,5.48c6.95,1.7,14.01,2.91,21.12,3.69c8.26,0.91,16.57,1.24,24.88,1.1
						c9.64-0.16,19.31-1.22,28.86-2.53c0,0-26,17-100,6c13.06,9.63,32.96,15.51,48.85,15.92c40.02,1.01,81.24-5.43,120.76,2.87
						c3.65,0.78,7.04,2.31,10.29,4.16c4.3,2.44,7.76,5.66,8.48,10.86c0.24,1.73,0.09,3.51,0.05,5.36c-0.01,0.47,0.3,0.89,0.75,1.01
						c0.23,0.06,0.48,0.11,0.73,0.16c4.51,0.87,9.08,1.52,13.53,2.65c6.74,1.71,12.1,4.52,17.56,9.01
						c6.69,5.5,8.62,13.08,7.55,19.16c-1.55,8.84-6.62,11.23-11.67,15.75c-0.59,0.53-1.55,0.16-1.61-0.64
						c-0.56-7.43-8.41-12.59-15.06-14.02c-8.03-1.74-16.71-0.8-24.21,2.56c-6.94,3.11-12.77,9.09-15.65,16.23
						c-3.49,8.65-1.82,18.08,1.7,26.44c4.08,9.7,10.2,18.33,16.66,26.57c15.26,19.46,32.73,36.99,50.36,54.3
						c0.37,0.37,2.14,2.66,2.7,2.65l2.52-0.04l0.04,0.04c0,0,25.53,0,25.52-0.01c12.27,0.01,24.55,0.01,36.82,0.01
						C340.05,250.55,340.45,250.49,341.28,250.42z"/>
					<path class="st4" d="M192.14,152.01c0,0-22.88,20.86-52.01,31.2v67.34h52.01V152.01z"/>
				</g>
				<g>
					<path class="st3" d="M341.28,250.42c-22.96-23.26-45.61-46.22-68.41-69.32c0.72-0.24,1.2-0.41,1.68-0.56
						c8.65-2.73,16.34-7.1,22.75-13.56c11.97-12.07,21.47-27.15,23.71-43.59c1.74-12.75,3.15-26.2-0.02-38.84
						c-2.38-9.48-6.6-18.12-13.17-25.44c-5.9-6.58-12.95-12.06-19.83-17.56c-12.97-10.38-39.75-15.83-56-16
						c-41.91-0.46-83.1-2.98-125-2c-14.49,0.34-29.52-1.44-44-3c-12.64-1.36-26.39-4.3-38.07-9.85c-1.49-0.71-2.94-1.5-4.33-2.39
						c-1.65-1.05-0.29,5.61-0.1,6.15c1.56,4.4,4.33,7.87,8.25,10.39c2.51,1.61,5.1,3.08,7.73,4.49c4.56,2.45,9.29,4.61,14.12,6.47
						c5.72,2.21,11.58,4.02,17.54,5.48c6.95,1.7,14.01,2.91,21.12,3.69c8.26,0.91,16.57,1.24,24.88,1.1
						c9.64-0.16,19.31-1.22,28.86-2.53c0,0-26,17-100,6c13.06,9.63,32.96,15.51,48.85,15.92c40.02,1.01,81.24-5.43,120.76,2.87
						c3.65,0.78,7.04,2.31,10.29,4.16c4.3,2.44,7.76,5.66,8.48,10.86c0.24,1.73,0.09,3.51,0.05,5.36c-0.01,0.47,0.3,0.89,0.75,1.01
						c0.23,0.06,0.48,0.11,0.73,0.16c4.51,0.87,9.08,1.52,13.53,2.65c6.74,1.71,12.1,4.52,17.56,9.01
						c6.69,5.5,8.62,13.08,7.55,19.16c-1.55,8.84-6.62,11.23-11.67,15.75c-0.59,0.53-1.55,0.16-1.61-0.64
						c-0.56-7.43-8.41-12.59-15.06-14.02c-8.03-1.74-16.71-0.8-24.21,2.56c-6.94,3.11-12.77,9.09-15.65,16.23
						c-3.49,8.65-1.82,18.08,1.7,26.44c4.08,9.7,10.2,18.33,16.66,26.57c15.26,19.46,32.73,36.99,50.36,54.3
						c0.37,0.37,2.14,2.66,2.7,2.65l2.52-0.04l0.04,0.04c0,0,25.53,0,25.52-0.01c12.27,0.01,24.55,0.01,36.82,0.01
						C340.05,250.55,340.45,250.49,341.28,250.42z"/>
					<path class="st3" d="M192.14,152.01c0,0-22.88,20.86-52.01,31.2v67.34h52.01V152.01z"/>
				</g>
			</g>
			<linearGradient id="SVGID_1_" gradientUnits="userSpaceOnUse" x1="496.0822" y1="6.4122" x2="641.0428" y2="257.4914">
				<stop  offset="0" style="stop-color:#ED0A40"/>
				<stop  offset="0.4944" style="stop-color:#A6325C"/>
				<stop  offset="1" style="stop-color:#443FE7"/>
			</linearGradient>
			<path class="st0" d="M563.08,153.72c17.68-5.98,42.53-18.62,50.49-35.71c0.05-0.1,0.4-0.73,0.96-1.72
				c5.87-15.44,6.01-31.56,1.55-47.98c-4.46-16.43-15.22-28.05-30.99-35.32c-12.37-5.7-23.44-7.39-36.99-7.44
				c-6.92-0.02-69.19-0.03-85.11-0.04c19,9.04,29.98,22.88,34,38.04c18.92-0.01,43.48-0.42,48.58-0.14
				c9.65,0.54,18.04,3.99,23.08,12.64c11.2,19.22-0.96,41.64-23.58,43c-8.34,0.5-39.71-1.45-48.08-1.5c0,0-5,15-11,21
				c0,0,102.35,111.27,104.14,113h61.2L563.08,153.72z"/>
		</g>
		<g>
			
				<linearGradient id="SVGID_00000054238300799536981660000015872012034446476700_" gradientUnits="userSpaceOnUse" x1="136.7819" y1="244.7541" x2="574.2465" y2="-7.8162">
				<stop  offset="0" style="stop-color:#D31027"/>
				<stop  offset="1" style="stop-color:#EA384D"/>
			</linearGradient>
			<path style="fill:url(#SVGID_00000054238300799536981660000015872012034446476700_);" d="M476.96,141.17
				c-0.91-1.04-1.83-2.08-2.48-2.82c2.9-4.08,6.01-7.66,8.23-11.72c10.12-18.53,11.51-38.19,6.21-58.31
				c-4.33-16.43-14.76-28.05-30.06-35.32c-12-5.7-24.81-7.91-37.95-7.96c-24.12-0.09-48.24-0.1-72.35-0.1l-0.13-0.11l0,0.11
				c-9.04,0-40.63,0.07-69.53,0.14c5.75,2.38,11.04,5.25,15.33,8.68l1.49,1.19c6.64,5.3,13.5,10.78,19.54,17.5
				c2.89,3.22,5.43,6.73,7.65,10.49l25.72,0.16l-0.64,187.48h8c14.08,0.52,45.49,0.88,62.52,0.65c7.29-0.1,14.67-0.83,21.81-2.26
				c17.01-3.41,31.28-11.48,40.78-26.53c8.18-12.97,10.53-27.44,9.99-42.45C490.59,165.56,486.64,152.29,476.96,141.17z
				 M418.13,213.31c-8.07-0.13-16.14-0.05-24.21-0.04c-0.05,0-0.11,0-0.16,0l-0.35-55.77c8.32-0.04,16.64-0.05,24.95,0.17
				c4.47,0.12,9.18,1.05,13.3,2.78c9.26,3.89,13.54,11.71,14.24,21.42C447.26,200.75,436.88,213.61,418.13,213.31z M420.06,119.06
				c-8.94,0.56-17.92,0.43-26.89,0.38l-0.35-56.31c0.38,0,0.77,0,1.15,0c8.86,0.01,17.74-0.22,26.57,0.29
				c9.36,0.54,17.5,3.99,22.39,12.64C453.79,95.27,442,117.69,420.06,119.06z"/>
			<g>
				<g>
					
						<linearGradient id="SVGID_00000104670217367911869040000014191524046206417822_" gradientUnits="userSpaceOnUse" x1="136.7819" y1="244.7541" x2="574.2465" y2="-7.8162">
						<stop  offset="0" style="stop-color:#D31027"/>
						<stop  offset="1" style="stop-color:#EA384D"/>
					</linearGradient>
					<path style="fill:url(#SVGID_00000104670217367911869040000014191524046206417822_);" d="M341.28,250.42
						c-22.96-23.26-45.61-46.22-68.41-69.32c0.72-0.24,1.2-0.41,1.68-0.56c8.65-2.73,16.34-7.1,22.75-13.56
						c11.97-12.07,21.47-27.15,23.71-43.59c1.74-12.75,3.15-26.2-0.02-38.84c-2.38-9.48-6.6-18.12-13.17-25.44
						c-5.9-6.58-12.95-12.06-19.83-17.56c-12.97-10.38-39.75-15.83-56-16c-41.91-0.46-83.1-2.98-125-2c-14.49,0.34-29.52-1.44-44-3
						c-12.64-1.36-26.39-4.3-38.07-9.85c-1.49-0.71-2.94-1.5-4.33-2.39c-1.65-1.05-0.29,5.61-0.1,6.15
						c1.56,4.4,4.33,7.87,8.25,10.39c2.51,1.61,5.1,3.08,7.73,4.49c4.56,2.45,9.29,4.61,14.12,6.47c5.72,2.21,11.58,4.02,17.54,5.48
						c6.95,1.7,14.01,2.91,21.12,3.69c8.26,0.91,16.57,1.24,24.88,1.1c9.64-0.16,19.31-1.22,28.86-2.53c0,0-26,17-100,6
						c13.06,9.63,32.96,15.51,48.85,15.92c40.02,1.01,81.24-5.43,120.76,2.87c3.65,0.78,7.04,2.31,10.29,4.16
						c4.3,2.44,7.76,5.66,8.48,10.86c0.24,1.73,0.09,3.51,0.05,5.36c-0.01,0.47,0.3,0.89,0.75,1.01c0.23,0.06,0.48,0.11,0.73,0.16
						c4.51,0.87,9.08,1.52,13.53,2.65c6.74,1.71,12.1,4.52,17.56,9.01c6.69,5.5,8.62,13.08,7.55,19.16
						c-1.55,8.84-6.62,11.23-11.67,15.75c-0.59,0.53-1.55,0.16-1.61-0.64c-0.56-7.43-8.41-12.59-15.06-14.02
						c-8.03-1.74-16.71-0.8-24.21,2.56c-6.94,3.11-12.77,9.09-15.65,16.23c-3.49,8.65-1.82,18.08,1.7,26.44
						c4.08,9.7,10.2,18.33,16.66,26.57c15.26,19.46,32.73,36.99,50.36,54.3c0.37,0.37,2.14,2.66,2.7,2.65l2.52-0.04l0.04,0.04
						c0,0,25.53,0,25.52-0.01c12.27,0.01,24.55,0.01,36.82,0.01C340.05,250.55,340.45,250.49,341.28,250.42z"/>
					
						<linearGradient id="SVGID_00000119088479478034565880000017643425423624734876_" gradientUnits="userSpaceOnUse" x1="136.7819" y1="244.7541" x2="574.2465" y2="-7.8162">
						<stop  offset="0" style="stop-color:#D31027"/>
						<stop  offset="1" style="stop-color:#EA384D"/>
					</linearGradient>
					<path style="fill:url(#SVGID_00000119088479478034565880000017643425423624734876_);" d="M192.14,152.01
						c0,0-22.88,20.86-52.01,31.2v67.34h52.01V152.01z"/>
				</g>
				<g>
					
						<linearGradient id="SVGID_00000169559953694943748850000017994438789901938592_" gradientUnits="userSpaceOnUse" x1="136.7819" y1="244.7541" x2="574.2465" y2="-7.8162">
						<stop  offset="0" style="stop-color:#D31027"/>
						<stop  offset="1" style="stop-color:#EA384D"/>
					</linearGradient>
					<path style="fill:url(#SVGID_00000169559953694943748850000017994438789901938592_);" d="M341.28,250.42
						c-22.96-23.26-45.61-46.22-68.41-69.32c0.72-0.24,1.2-0.41,1.68-0.56c8.65-2.73,16.34-7.1,22.75-13.56
						c11.97-12.07,21.47-27.15,23.71-43.59c1.74-12.75,3.15-26.2-0.02-38.84c-2.38-9.48-6.6-18.12-13.17-25.44
						c-5.9-6.58-12.95-12.06-19.83-17.56c-12.97-10.38-39.75-15.83-56-16c-41.91-0.46-83.1-2.98-125-2c-14.49,0.34-29.52-1.44-44-3
						c-12.64-1.36-26.39-4.3-38.07-9.85c-1.49-0.71-2.94-1.5-4.33-2.39c-1.65-1.05-0.29,5.61-0.1,6.15
						c1.56,4.4,4.33,7.87,8.25,10.39c2.51,1.61,5.1,3.08,7.73,4.49c4.56,2.45,9.29,4.61,14.12,6.47c5.72,2.21,11.58,4.02,17.54,5.48
						c6.95,1.7,14.01,2.91,21.12,3.69c8.26,0.91,16.57,1.24,24.88,1.1c9.64-0.16,19.31-1.22,28.86-2.53c0,0-26,17-100,6
						c13.06,9.63,32.96,15.51,48.85,15.92c40.02,1.01,81.24-5.43,120.76,2.87c3.65,0.78,7.04,2.31,10.29,4.16
						c4.3,2.44,7.76,5.66,8.48,10.86c0.24,1.73,0.09,3.51,0.05,5.36c-0.01,0.47,0.3,0.89,0.75,1.01c0.23,0.06,0.48,0.11,0.73,0.16
						c4.51,0.87,9.08,1.52,13.53,2.65c6.74,1.71,12.1,4.52,17.56,9.01c6.69,5.5,8.62,13.08,7.55,19.16
						c-1.55,8.84-6.62,11.23-11.67,15.75c-0.59,0.53-1.55,0.16-1.61-0.64c-0.56-7.43-8.41-12.59-15.06-14.02
						c-8.03-1.74-16.71-0.8-24.21,2.56c-6.94,3.11-12.77,9.09-15.65,16.23c-3.49,8.65-1.82,18.08,1.7,26.44
						c4.08,9.7,10.2,18.33,16.66,26.57c15.26,19.46,32.73,36.99,50.36,54.3c0.37,0.37,2.14,2.66,2.7,2.65l2.52-0.04l0.04,0.04
						c0,0,25.53,0,25.52-0.01c12.27,0.01,24.55,0.01,36.82,0.01C340.05,250.55,340.45,250.49,341.28,250.42z"/>
					
						<linearGradient id="SVGID_00000183951249345424308850000016643140528610957457_" gradientUnits="userSpaceOnUse" x1="136.7819" y1="244.7541" x2="574.2465" y2="-7.8162">
						<stop  offset="0" style="stop-color:#D31027"/>
						<stop  offset="1" style="stop-color:#EA384D"/>
					</linearGradient>
					<path style="fill:url(#SVGID_00000183951249345424308850000016643140528610957457_);" d="M192.14,152.01
						c0,0-22.88,20.86-52.01,31.2v67.34h52.01V152.01z"/>
				</g>
				<g>
					
						<linearGradient id="SVGID_00000137122384778401397220000007400256251145558429_" gradientUnits="userSpaceOnUse" x1="136.7819" y1="244.7541" x2="574.2465" y2="-7.8162">
						<stop  offset="0" style="stop-color:#D31027"/>
						<stop  offset="1" style="stop-color:#EA384D"/>
					</linearGradient>
					<path style="fill:url(#SVGID_00000137122384778401397220000007400256251145558429_);" d="M341.28,250.42
						c-22.96-23.26-45.61-46.22-68.41-69.32c0.72-0.24,1.2-0.41,1.68-0.56c8.65-2.73,16.34-7.1,22.75-13.56
						c11.97-12.07,21.47-27.15,23.71-43.59c1.74-12.75,3.15-26.2-0.02-38.84c-2.38-9.48-6.6-18.12-13.17-25.44
						c-5.9-6.58-12.95-12.06-19.83-17.56c-12.97-10.38-39.75-15.83-56-16c-41.91-0.46-83.1-2.98-125-2c-14.49,0.34-29.52-1.44-44-3
						c-12.64-1.36-26.39-4.3-38.07-9.85c-1.49-0.71-2.94-1.5-4.33-2.39c-1.65-1.05-0.29,5.61-0.1,6.15
						c1.56,4.4,4.33,7.87,8.25,10.39c2.51,1.61,5.1,3.08,7.73,4.49c4.56,2.45,9.29,4.61,14.12,6.47c5.72,2.21,11.58,4.02,17.54,5.48
						c6.95,1.7,14.01,2.91,21.12,3.69c8.26,0.91,16.57,1.24,24.88,1.1c9.64-0.16,19.31-1.22,28.86-2.53c0,0-26,17-100,6
						c13.06,9.63,32.96,15.51,48.85,15.92c40.02,1.01,81.24-5.43,120.76,2.87c3.65,0.78,7.04,2.31,10.29,4.16
						c4.3,2.44,7.76,5.66,8.48,10.86c0.24,1.73,0.09,3.51,0.05,5.36c-0.01,0.47,0.3,0.89,0.75,1.01c0.23,0.06,0.48,0.11,0.73,0.16
						c4.51,0.87,9.08,1.52,13.53,2.65c6.74,1.71,12.1,4.52,17.56,9.01c6.69,5.5,8.62,13.08,7.55,19.16
						c-1.55,8.84-6.62,11.23-11.67,15.75c-0.59,0.53-1.55,0.16-1.61-0.64c-0.56-7.43-8.41-12.59-15.06-14.02
						c-8.03-1.74-16.71-0.8-24.21,2.56c-6.94,3.11-12.77,9.09-15.65,16.23c-3.49,8.65-1.82,18.08,1.7,26.44
						c4.08,9.7,10.2,18.33,16.66,26.57c15.26,19.46,32.73,36.99,50.36,54.3c0.37,0.37,2.14,2.66,2.7,2.65l2.52-0.04l0.04,0.04
						c0,0,25.53,0,25.52-0.01c12.27,0.01,24.55,0.01,36.82,0.01C340.05,250.55,340.45,250.49,341.28,250.42z"/>
					
						<linearGradient id="SVGID_00000017496926921691011700000001543239982553283491_" gradientUnits="userSpaceOnUse" x1="136.7819" y1="244.7541" x2="574.2465" y2="-7.8162">
						<stop  offset="0" style="stop-color:#D31027"/>
						<stop  offset="1" style="stop-color:#EA384D"/>
					</linearGradient>
					<path style="fill:url(#SVGID_00000017496926921691011700000001543239982553283491_);" d="M192.14,152.01
						c0,0-22.88,20.86-52.01,31.2v67.34h52.01V152.01z"/>
				</g>
			</g>
			
				<linearGradient id="SVGID_00000139994617537423756000000009293995845584062396_" gradientUnits="userSpaceOnUse" x1="136.7819" y1="244.7541" x2="574.2465" y2="-7.8162">
				<stop  offset="0" style="stop-color:#D31027"/>
				<stop  offset="1" style="stop-color:#EA384D"/>
			</linearGradient>
			<path style="fill:url(#SVGID_00000139994617537423756000000009293995845584062396_);" d="M563.08,153.72
				c17.68-5.98,42.53-18.62,50.49-35.71c0.05-0.1,0.4-0.73,0.96-1.72c5.87-15.44,6.01-31.56,1.55-47.98
				c-4.46-16.43-15.22-28.05-30.99-35.32c-12.37-5.7-23.44-7.39-36.99-7.44c-6.92-0.02-69.19-0.03-85.11-0.04
				c19,9.04,29.98,22.88,34,38.04c18.92-0.01,43.48-0.42,48.58-0.14c9.65,0.54,18.04,3.99,23.08,12.64
				c11.2,19.22-0.96,41.64-23.58,43c-8.34,0.5-39.71-1.45-48.08-1.5c0,0-5,15-11,21c0,0,102.35,111.27,104.14,113h61.2
				L563.08,153.72z"/>
		</g>
	</g>
</g>
<g>
	<path class="st2" d="M677.69,219.17h13.65c10.41,0,17.49,6.57,17.49,16.19s-7.08,16.19-17.49,16.19h-13.65V219.17z M691.06,247.53
		c8,0,13.14-4.9,13.14-12.17s-5.13-12.17-13.14-12.17h-8.74v24.33H691.06z"/>
	<path class="st2" d="M726.08,219.17h4.63v32.38h-4.63V219.17z"/>
	<path class="st2" d="M773.04,235.17h4.44v12.63c-3.24,2.73-7.73,4.12-12.26,4.12c-9.95,0-17.26-6.99-17.26-16.56
		c0-9.58,7.31-16.56,17.35-16.56c5.13,0,9.48,1.71,12.44,5l-2.87,2.87c-2.68-2.59-5.74-3.75-9.39-3.75
		c-7.5,0-12.91,5.23-12.91,12.45c0,7.12,5.41,12.45,12.86,12.45c2.73,0,5.27-0.6,7.59-2.08V235.17z"/>
	<path class="st2" d="M796.49,219.17h4.63v32.38h-4.63V219.17z"/>
	<path class="st2" d="M827.44,223.19h-11.1v-4.02h26.79v4.02h-11.1v28.36h-4.58V223.19z"/>
	<path class="st2" d="M877.36,243.45h-17.21l-3.56,8.1h-4.76l14.67-32.38h4.58l14.71,32.38h-4.86L877.36,243.45z M875.74,239.75
		l-6.99-15.87l-6.99,15.87H875.74z"/>
	<path class="st2" d="M900.77,219.17h4.63v28.36h17.53v4.03h-22.16V219.17z"/>
</g>
</svg>
